<svg width="118" height="30" viewBox="0 0 118 30" fill="none" xmlns="http://www.w3.org/2000/svg"> <path d="M19.2618 8.02075L14.6489 12.6337C13.7654 13.5172 12.5667 14.0138 11.3171 14.0138H0L12.6275 1.38638C12.8748 1.139 13.2103 1 13.5604 1H18.6116C19.1841 1 19.6482 1.46412 19.6482 2.03662V7.08779C19.6482 7.43789 19.5092 7.77338 19.2618 8.02075Z" fill="#123AF8"></path> <path d="M11.1871 29.8199V24.2221C11.1871 23.6496 10.723 23.1855 10.1505 23.1855H4.55273L11.7097 16.0286C12.5931 15.1451 13.7919 14.6484 15.0415 14.6484H26.3585L11.1871 29.8199Z" fill="#123AF8"></path> <path d="M98.1122 10.6328H95.7412V19.4601H98.1122V10.6328Z" fill="#0E161E"></path> <path d="M40.6033 13.1026C40.1072 12.8548 39.4551 12.598 38.6474 12.3322C38.1051 12.1706 37.6782 12.0208 37.3667 11.8822C37.0553 11.7437 36.7985 11.5679 36.5963 11.3545C36.3942 11.141 36.2934 10.8786 36.2934 10.5671C36.2934 10.3249 36.3598 10.1087 36.4922 9.9183C36.6246 9.72794 36.815 9.58375 37.0633 9.48574C37.3111 9.38774 37.6023 9.33873 37.9373 9.33873C38.3412 9.33873 38.6672 9.40517 38.9151 9.53757C39.1629 9.67045 39.3533 9.85799 39.4861 10.1002C39.6186 10.3424 39.6906 10.6081 39.7024 10.8965H42.2294C42.2176 10.1237 42.016 9.45135 41.6235 8.88026C41.231 8.30918 40.7117 7.87663 40.0657 7.58213C39.4192 7.28811 38.7214 7.14062 37.9713 7.14062C37.1636 7.14062 36.4366 7.28481 35.7906 7.57318C35.1441 7.86155 34.6423 8.263 34.2847 8.77613C33.927 9.28973 33.748 9.86929 33.748 10.5158C33.748 11.3121 33.9299 11.9609 34.2931 12.4627C34.6564 12.9645 35.0895 13.3396 35.5913 13.5879C36.0931 13.8363 36.7424 14.0931 37.5382 14.3583C38.0919 14.543 38.5216 14.699 38.8279 14.8258C39.1337 14.953 39.3905 15.1231 39.5983 15.3365C39.8061 15.55 39.9097 15.8186 39.9097 16.1413C39.9097 16.4184 39.8377 16.6577 39.6935 16.8594C39.5493 17.0616 39.3358 17.2142 39.0531 17.3179C38.7704 17.4215 38.4213 17.4738 38.0061 17.4738C37.591 17.4738 37.2301 17.4046 36.9243 17.2661C36.6185 17.1275 36.3904 16.923 36.2406 16.6516C36.0903 16.3807 36.004 16.0546 35.981 15.6739H33.4365C33.4478 16.4815 33.6471 17.1883 34.0335 17.7943C34.4199 18.4002 34.9594 18.8648 35.6521 19.1876C36.3442 19.5103 37.1406 19.6724 38.0405 19.6724C38.9405 19.6724 39.7048 19.5193 40.3687 19.214C41.0321 18.9082 41.5429 18.4902 41.9005 17.9592C42.2582 17.4286 42.4372 16.8458 42.4372 16.2111C42.4372 15.3921 42.2553 14.731 41.8921 14.2292C41.5288 13.7274 41.0986 13.3523 40.6024 13.104L40.6033 13.1026Z" fill="#0E161E"></path> <path d="M46.2288 14.3706H50.919V12.0858H46.2288V9.62809H51.0919V7.34375H43.7188V19.459H51.2653V17.1747H46.2288V14.3706Z" fill="#0E161E"></path> <path d="M63.606 14.6826C64.2868 14.348 64.8089 13.8862 65.1722 13.2977C65.5355 12.7092 65.7174 12.0345 65.7174 11.2725C65.7174 10.5106 65.5355 9.81845 65.1722 9.2304C64.8089 8.64188 64.2864 8.18059 63.606 7.84557C62.9251 7.51102 62.1113 7.34375 61.1657 7.34375H57.0635V19.4595H59.573V15.1844H60.5903L64.1078 19.4595H67.1884L63.3407 14.8013C63.4312 14.7641 63.5197 14.725 63.606 14.6826ZM59.573 9.62856H61.1308C61.569 9.62856 61.9412 9.70065 62.2471 9.84483C62.5529 9.98902 62.7804 10.1855 62.9307 10.4334C63.0806 10.6817 63.156 10.9611 63.156 11.273C63.156 11.5849 63.0806 11.8502 62.9307 12.1037C62.7809 12.3577 62.5529 12.5537 62.2471 12.6922C61.9412 12.8308 61.569 12.9 61.1308 12.9H59.573V9.62856Z" fill="#0E161E"></path> <path d="M73.6094 11.5285C73.4511 11.3598 73.2843 11.2119 73.1076 11.0875C72.7961 10.8684 72.4498 10.7039 72.0691 10.5941C71.6883 10.4848 71.2558 10.4297 70.7709 10.4297C70.0208 10.4297 69.3055 10.6262 68.6246 11.0182C67.9438 11.4107 67.393 11.9587 66.9717 12.6627C66.5505 13.3666 66.3398 14.1629 66.3398 15.0511C66.3398 15.9393 66.55 16.7361 66.9717 17.4396C67.393 18.1436 67.9438 18.6916 68.6246 19.0841C69.3055 19.4761 70.0208 19.6726 70.7709 19.6726C71.5211 19.6726 72.1152 19.5487 72.6227 19.3003C72.9836 19.1241 73.3125 18.8758 73.6094 18.5563V19.4648H75.8768V10.6375H73.6094V11.5285ZM73.2805 16.2974C73.0727 16.6668 72.781 16.958 72.4064 17.1715C72.0314 17.3849 71.6191 17.4919 71.1691 17.4919C70.7191 17.4919 70.2889 17.3854 69.9143 17.1715C69.5392 16.958 69.2447 16.6668 69.0318 16.2974C68.8183 15.9285 68.7113 15.5129 68.7113 15.0511C68.7113 14.5894 68.8178 14.1889 69.0318 13.8138C69.2452 13.4387 69.5392 13.1447 69.9143 12.9312C70.2894 12.7178 70.7073 12.6108 71.1691 12.6108C71.6309 12.6108 72.0314 12.7178 72.4064 12.9312C72.781 13.1447 73.0727 13.4392 73.2805 13.8138C73.4883 14.1889 73.5919 14.6011 73.5919 15.0511C73.5919 15.5011 73.4883 15.928 73.2805 16.2974Z" fill="#0E161E"></path> <path d="M83.8831 10.923C83.3408 10.5941 82.7174 10.4297 82.0139 10.4297C81.6096 10.4297 81.2322 10.4876 80.8802 10.6026C80.5282 10.7181 80.1965 10.8853 79.885 11.1044C79.7149 11.2241 79.5533 11.3636 79.4002 11.5214V10.637H77.1328V19.4643H79.5038V14.6699C79.5038 14.2661 79.5844 13.9085 79.746 13.597C79.9077 13.2856 80.1381 13.0434 80.4382 12.87C80.7384 12.6971 81.0668 12.6104 81.4249 12.6104C81.8056 12.6104 82.1345 12.6942 82.4116 12.8615C82.6886 13.0288 82.8964 13.2681 83.0345 13.5796C83.1725 13.8911 83.2423 14.2548 83.2423 14.6699V19.4643H85.6133V14.2199C85.6133 13.5047 85.4602 12.8587 85.1548 12.2815C84.849 11.7047 84.4254 11.2519 83.8831 10.923Z" fill="#0E161E"></path> <path d="M95.1705 10.6348H92.4357L89.2509 14.3355V7H86.8799V19.4616H89.2509V15.6138L92.6086 19.4616H95.4471L91.384 14.908L95.1705 10.6348Z" fill="#0E161E"></path> <path d="M106.145 10.923C105.602 10.5941 104.979 10.4297 104.276 10.4297C103.871 10.4297 103.494 10.4876 103.142 10.6026C102.79 10.7181 102.458 10.8853 102.147 11.1044C101.977 11.2241 101.815 11.3636 101.662 11.5214V10.637H99.3945V19.4643H101.766V14.6699C101.766 14.2661 101.846 13.9085 102.008 13.597C102.169 13.2856 102.4 13.0434 102.7 12.87C103 12.6971 103.329 12.6104 103.687 12.6104C104.067 12.6104 104.396 12.6942 104.673 12.8615C104.95 13.0288 105.158 13.2681 105.296 13.5796C105.434 13.8911 105.504 14.2548 105.504 14.6699V19.4643H107.875V14.2199C107.875 13.5047 107.722 12.8587 107.417 12.2815C107.111 11.7047 106.687 11.2519 106.145 10.923Z" fill="#0E161E"></path> <path d="M115.733 10.637V11.5379C115.575 11.3711 115.408 11.2236 115.232 11.096C114.92 10.8707 114.577 10.7039 114.201 10.5941C113.826 10.4848 113.397 10.4297 112.912 10.4297C112.173 10.4297 111.478 10.6116 110.826 10.9749C110.174 11.3381 109.646 11.855 109.243 12.5241C108.838 13.1937 108.637 13.9664 108.637 14.8433C108.637 15.7202 108.841 16.4963 109.251 17.1715C109.661 17.8467 110.192 18.366 110.843 18.7293C111.495 19.0925 112.19 19.2744 112.929 19.2744C113.61 19.2744 114.207 19.1533 114.72 18.9111C115.078 18.742 115.38 18.5299 115.629 18.2769V18.9455C115.629 19.3724 115.542 19.7588 115.369 20.1051C115.196 20.4515 114.939 20.7224 114.599 20.9184C114.258 21.1144 113.846 21.2129 113.361 21.2129C112.992 21.2129 112.678 21.1611 112.418 21.0569C112.158 20.9533 111.936 20.8176 111.752 20.6503C111.567 20.483 111.411 20.2724 111.284 20.0184H108.861C109.011 20.6644 109.279 21.2412 109.666 21.7491C110.052 22.2566 110.557 22.6547 111.18 22.9436C111.803 23.232 112.53 23.3761 113.361 23.3761C114.376 23.3761 115.233 23.1683 115.931 22.7532C116.629 22.3376 117.148 21.7755 117.489 21.0659C117.829 20.3563 118 19.5571 118 18.6689V10.638H115.732L115.733 10.637ZM115.413 16.0458C115.211 16.3978 114.931 16.6749 114.574 16.8765C114.216 17.0787 113.812 17.1795 113.362 17.1795C112.912 17.1795 112.491 17.0787 112.133 16.8765C111.776 16.6749 111.499 16.3978 111.303 16.0458C111.106 15.6938 111.008 15.2929 111.008 14.8429C111.008 14.416 111.106 14.0206 111.303 13.6573C111.499 13.2941 111.776 13.0113 112.133 12.8092C112.491 12.6075 112.901 12.5062 113.362 12.5062C113.824 12.5062 114.216 12.6075 114.574 12.8092C114.931 13.0113 115.211 13.2941 115.413 13.6573C115.615 14.0206 115.716 14.416 115.716 14.8429C115.716 15.2929 115.615 15.6938 115.413 16.0458Z" fill="#0E161E"></path> <path d="M98.1122 7H95.7412V9.37103H98.1122V7Z" fill="#0E161E"></path> </svg>